
<svg xmlns="http://www.w3.org/2000/svg" width="54.137" height="54.132" viewBox="0 0 54.137 54.132">
  <g id="Group_6" data-name="Group 6" transform="translate(-606.097 -342.103)">
    <path id="Path_13" data-name="Path 13" d="M631.477,342.1h3.384c.906.117,1.816.2,2.715.355a27.117,27.117,0,0,1,22.291,31.11A25.785,25.785,0,0,1,651.573,389a26.419,26.419,0,0,1-22.058,6.992,25.925,25.925,0,0,1-14.158-6.447,26.622,26.622,0,0,1-8.839-15.647c-.18-1-.282-2.018-.421-3.027v-3.384c.043-.347.09-.693.128-1.04a27.12,27.12,0,0,1,22.333-23.932C629.525,342.343,630.5,342.237,631.477,342.1Zm9.872,24.072-5.116-5.126-12.676,12.673,5.118,5.131Zm-19.937,9.675c-.443.415-.912.817-1.331,1.267a1.777,1.777,0,0,0-.417.766c-.351,1.488-.673,2.983-1,4.478-.219,1.009.351,1.591,1.349,1.372q2.266-.5,4.527-1.021a1.385,1.385,0,0,0,.61-.28c.5-.463.976-.961,1.429-1.414Zm22.112-11.726c.771-.78,1.562-1.577,2.348-2.377.533-.543.533-.887-.009-1.432-1.1-1.11-2.231-2.2-3.318-3.328s-1.3-1.143-2.381-.005c-.626.657-1.286,1.281-1.886,1.874Z"/>
    <path id="Path_14" data-name="Path 14" d="M641.349,366.175l-12.674,12.678-5.118-5.131,12.676-12.673Z" fill="#fff"/>
    <path id="Path_15" data-name="Path 15" d="M621.412,375.85l5.17,5.168c-.453.453-.925.951-1.429,1.414a1.385,1.385,0,0,1-.61.28q-2.261.525-4.527,1.021c-1,.219-1.568-.363-1.349-1.372.324-1.495.646-2.99,1-4.478a1.777,1.777,0,0,1,.417-.766C620.5,376.667,620.969,376.265,621.412,375.85Z" fill="#fff"/>
    <path id="Path_16" data-name="Path 16" d="M643.524,364.124l-5.246-5.268c.6-.593,1.26-1.217,1.886-1.874,1.084-1.138,1.281-1.135,2.381.005s2.213,2.218,3.318,3.328c.542.545.542.889.009,1.432C645.086,362.547,644.295,363.344,643.524,364.124Z" fill="#fff"/>
  </g>
</svg>
